# xmcd
#
# Track frame offsets:
#	150
#	11230
#	25408
#	43811
#	54888
#	68770
#	81222
#	98820
#	115325
#	126228
#
# Disc length: 1907 seconds
#
# Revision: 1
# Processed by: cddbd v1.5.1PL0 Copyright (c) Steve Scherf et al.
# Submitted via: audiograbber 1.82.02
#
DISCID=8307710a
DTITLE=Johnny Chester - Love In The Meantime
DYEAR=1900
DGENRE=Country
TTITLE0=Love In The Meantime
TTITLE1=Aint Nothin New
TTITLE2=Freedom To Stay
TTITLE3=Goodbye Forever Again
TTITLE4=I Find I'm Thinking About You Again
TTITLE5=You Bring Out The Devil In Me
TTITLE6=Living The Words Of This Song
TTITLE7=Rough Around The Edges
TTITLE8=Falling Together
TTITLE9=Three's A Crowed
EXTD=
EXTT0=
EXTT1=
EXTT2=
EXTT3=
EXTT4=
EXTT5=
EXTT6=
EXTT7=
EXTT8=
EXTT9=
PLAYORDER=
